<svg width="127" height="128" viewBox="0 0 127 128" fill="none" xmlns="http://www.w3.org/2000/svg">
<mask id="path-1-inside-1_14_3" fill="white">
<path d="M27.8063 102.152C24.0069 106.26 17.5163 106.542 14.09 102.121C8.48121 94.8821 4.49761 86.4621 2.46968 77.4366C-0.303946 65.0923 0.710649 52.1931 5.3801 40.4345C10.0496 28.676 18.1553 18.6085 28.6319 11.5553C39.1085 4.50219 51.4656 0.793521 64.0788 0.916835C76.6921 1.04015 88.9712 4.98967 99.302 12.2462C109.633 19.5028 117.532 29.7268 121.961 41.5743C126.39 53.4218 127.142 66.3383 124.117 78.6259C121.906 87.6101 117.751 95.9507 111.996 103.078C108.481 107.432 101.997 107.023 98.2823 102.841V102.841C94.5846 98.6783 95.0775 92.3552 98.2397 87.7702C101.149 83.5513 103.289 78.8156 104.529 73.7813C106.577 65.4606 106.068 56.714 103.068 48.6913C100.069 40.6685 94.7203 33.7452 87.7246 28.8313C80.7289 23.9174 72.4139 21.2429 63.8727 21.1594C55.3314 21.0759 46.9636 23.5873 39.8693 28.3635C32.7749 33.1396 27.2859 39.957 24.1239 47.9195C20.9619 55.8819 20.2749 64.6168 22.1531 72.976C23.2894 78.0332 25.3324 82.8097 28.1555 87.0845C31.2238 91.7307 31.588 98.0625 27.8063 102.152V102.152Z"/>
</mask>
<path d="M27.8063 102.152C24.0069 106.26 17.5163 106.542 14.09 102.121C8.48121 94.8821 4.49761 86.4621 2.46968 77.4366C-0.303946 65.0923 0.710649 52.1931 5.3801 40.4345C10.0496 28.676 18.1553 18.6085 28.6319 11.5553C39.1085 4.50219 51.4656 0.793521 64.0788 0.916835C76.6921 1.04015 88.9712 4.98967 99.302 12.2462C109.633 19.5028 117.532 29.7268 121.961 41.5743C126.39 53.4218 127.142 66.3383 124.117 78.6259C121.906 87.6101 117.751 95.9507 111.996 103.078C108.481 107.432 101.997 107.023 98.2823 102.841V102.841C94.5846 98.6783 95.0775 92.3552 98.2397 87.7702C101.149 83.5513 103.289 78.8156 104.529 73.7813C106.577 65.4606 106.068 56.714 103.068 48.6913C100.069 40.6685 94.7203 33.7452 87.7246 28.8313C80.7289 23.9174 72.4139 21.2429 63.8727 21.1594C55.3314 21.0759 46.9636 23.5873 39.8693 28.3635C32.7749 33.1396 27.2859 39.957 24.1239 47.9195C20.9619 55.8819 20.2749 64.6168 22.1531 72.976C23.2894 78.0332 25.3324 82.8097 28.1555 87.0845C31.2238 91.7307 31.588 98.0625 27.8063 102.152V102.152Z" fill="#F7E054" stroke="white" stroke-width="2" mask="url(#path-1-inside-1_14_3)"/>
<path fill-rule="evenodd" clip-rule="evenodd" d="M40.9754 46.634C44.1933 46.5844 46.9699 48.5689 48.0791 51.3991L77.0416 92.4271L76.4399 54.4043L76.3213 46.9052L91.3195 46.6738L91.4381 54.1729L92.3444 111.45C92.41 115.592 89.1056 119.001 84.964 119.065C84.5283 119.072 84.1007 119.041 83.6842 118.976C80.6608 119.848 77.2769 118.769 75.369 116.066L48.9835 78.6884L49.4994 111.295L49.6181 118.794L34.6199 119.025L34.5012 111.526L33.6239 56.0807C32.9503 53.4303 33.7927 50.556 35.9307 48.6914C37.2468 47.442 39.0175 46.6642 40.9754 46.634Z" fill="#F7E054"/>
<path d="M48.0791 51.3991L47.6136 51.5816L47.6357 51.638L47.6707 51.6875L48.0791 51.3991ZM40.9754 46.634L40.9831 47.134L40.9754 46.634ZM77.0416 92.4271L76.6331 92.7155L77.5671 94.0386L77.5415 92.4192L77.0416 92.4271ZM76.4399 54.4043L75.94 54.4122L76.4399 54.4043ZM76.3213 46.9052L76.3136 46.4053L75.8134 46.413L75.8213 46.9131L76.3213 46.9052ZM91.3195 46.6738L91.8194 46.6659L91.8115 46.1662L91.3118 46.1739L91.3195 46.6738ZM91.4381 54.1729L90.9382 54.1808L91.4381 54.1729ZM92.3444 111.45L91.8445 111.458L92.3444 111.45ZM84.964 119.065L84.9717 119.565L84.964 119.065ZM83.6842 118.976L83.7612 118.482L83.6519 118.465L83.5457 118.496L83.6842 118.976ZM75.369 116.066L75.7775 115.778L75.369 116.066ZM48.9835 78.6884L49.392 78.4L48.458 77.0769L48.4836 78.6963L48.9835 78.6884ZM49.4994 111.295L49.9994 111.287L49.4994 111.295ZM49.6181 118.794L49.6258 119.294L50.126 119.286L50.118 118.786L49.6181 118.794ZM34.6199 119.025L34.12 119.033L34.1279 119.533L34.6276 119.525L34.6199 119.025ZM34.5012 111.526L34.0013 111.534L34.5012 111.526ZM33.6239 56.0807L34.1239 56.0728L34.1229 56.0143L34.1085 55.9575L33.6239 56.0807ZM35.9307 48.6914L36.2593 49.0682L36.2673 49.0613L36.2749 49.054L35.9307 48.6914ZM48.5447 51.2167C47.3619 48.1986 44.4009 46.0811 40.9677 46.1341L40.9831 47.134C43.9857 47.0876 46.578 48.9391 47.6136 51.5816L48.5447 51.2167ZM77.45 92.1388L48.4876 51.1108L47.6707 51.6875L76.6331 92.7155L77.45 92.1388ZM77.5415 92.4192L76.9399 54.3964L75.94 54.4122L76.5416 92.435L77.5415 92.4192ZM76.9399 54.3964L76.8212 46.8973L75.8213 46.9131L75.94 54.4122L76.9399 54.3964ZM76.329 47.4052L91.3272 47.1738L91.3118 46.1739L76.3136 46.4053L76.329 47.4052ZM90.8196 46.6817L90.9382 54.1808L91.9381 54.165L91.8194 46.6659L90.8196 46.6817ZM90.9382 54.1808L91.8445 111.458L92.8444 111.443L91.9381 54.165L90.9382 54.1808ZM91.8445 111.458C91.9057 115.324 88.8217 118.506 84.9563 118.565L84.9717 119.565C89.3895 119.497 92.9143 115.86 92.8444 111.443L91.8445 111.458ZM84.9563 118.565C84.5491 118.572 84.1498 118.543 83.7612 118.482L83.6072 119.47C84.0516 119.54 84.5075 119.572 84.9717 119.565L84.9563 118.565ZM74.9605 116.354C76.9955 119.237 80.6018 120.385 83.8227 119.457L83.5457 118.496C80.7198 119.311 77.5584 118.3 75.7775 115.778L74.9605 116.354ZM48.575 78.9767L74.9605 116.354L75.7775 115.778L49.392 78.4L48.575 78.9767ZM49.9994 111.287L49.4835 78.6805L48.4836 78.6963L48.9995 111.303L49.9994 111.287ZM50.118 118.786L49.9994 111.287L48.9995 111.303L49.1182 118.802L50.118 118.786ZM34.6276 119.525L49.6258 119.294L49.6104 118.294L34.6122 118.525L34.6276 119.525ZM34.0013 111.534L34.12 119.033L35.1198 119.018L35.0012 111.518L34.0013 111.534ZM33.124 56.0886L34.0013 111.534L35.0012 111.518L34.1239 56.0728L33.124 56.0886ZM35.6021 48.3145C33.3192 50.3055 32.4202 53.3742 33.1393 56.2038L34.1085 55.9575C33.4805 53.4863 34.2661 50.8065 36.2593 49.0682L35.6021 48.3145ZM40.9677 46.1341C38.8796 46.1663 36.99 46.9964 35.5865 48.3287L36.2749 49.054C37.5036 47.8876 39.1555 47.1622 40.9831 47.134L40.9677 46.1341Z" fill="white"/>
</svg>
